<?xml version="1.0" encoding="UTF-8"?>
<svg version="1.1" xmlns="http://www.w3.org/2000/svg" width="365" height="365">
<path d="M0 0 C2.88749114 -0.1283365 5.77340745 -0.21703151 8.66267204 -0.29366231 C9.48817857 -0.33707409 10.3136851 -0.38048587 11.16420698 -0.42521316 C18.56738512 -0.53865261 22.64580858 2.94487141 27.87739372 7.82936931 C28.37706657 8.38084636 28.87673943 8.93232341 29.39155388 9.50051188 C32.69736361 13.01861282 36.22677284 16.11843259 39.93061638 19.20754313 C41.08298853 20.1916644 42.23403298 21.17734248 43.38374138 22.16457438 C45.76816262 24.20480374 48.15390093 26.24348515 50.53999138 28.28176188 C51.14963737 28.8031071 51.75928337 29.32445231 52.38740349 29.86159587 C53.52819186 30.83712913 54.66956575 31.81197841 55.81171989 32.78591228 C56.86770896 33.68918957 57.91531592 34.60237691 58.9534598 35.5261085 C60.87994317 37.20273684 60.87994317 37.20273684 63.13565487 38.74559093 C66.65745209 41.41189253 69.38885124 43.55968618 70.69540703 47.88163066 C71.00229499 51.1802273 71.0250411 54.37382892 70.95040703 57.68605876 C70.96194176 59.56453706 70.96194176 59.56453706 70.97370952 61.48096442 C70.99375784 64.94131846 70.95795283 68.39914757 70.91270697 71.85917997 C70.87373531 75.59594864 70.88700042 79.33258207 70.89382744 83.06949687 C70.89854015 89.53855283 70.87037309 96.00679004 70.81968689 102.47564006 C70.7464527 111.82829085 70.72309487 121.18054691 70.71179496 130.53345335 C70.69211128 145.70873229 70.63225542 160.88357512 70.54707146 176.05861735 C70.46442369 190.79720197 70.40073599 205.53566801 70.36250114 220.27443767 C70.36013663 221.18336953 70.35777212 222.09230139 70.35533596 223.02877665 C70.34359037 227.58875256 70.33221706 232.14872931 70.32102883 236.70870662 C70.22777192 274.52112668 70.06929216 312.33305091 69.86811638 350.14504313 C66.49925155 350.88299784 63.27237912 351.31770608 59.82935143 351.48673415 C58.83261233 351.53749274 57.83587323 351.58825132 56.80892992 351.64054805 C55.72111648 351.69210849 54.63330304 351.74366892 53.51252556 351.79679179 C51.7703734 351.88382803 51.7703734 351.88382803 49.99302626 351.97262257 C46.77274089 352.1327232 43.55231139 352.2894393 40.33179021 352.44471061 C36.85619147 352.61309382 33.38080763 352.78580921 29.9053936 352.95795512 C23.09390687 353.29462249 16.28222476 353.62716536 9.47046137 353.95818312 C3.92531413 354.22770334 -1.61976431 354.49859854 -7.16479683 354.77046847 C-8.3494789 354.82854782 -8.3494789 354.82854782 -9.55809394 354.8878005 C-11.16282499 354.96647537 -12.76755596 355.04515184 -14.37228686 355.12382989 C-29.43161492 355.86197728 -44.49117569 356.59528712 -59.55081326 357.32708883 C-73.2876142 357.99475139 -87.02412441 358.66819406 -100.76050454 359.34445436 C-114.88911884 360.03997623 -129.01791577 360.73167029 -143.14691877 361.4192521 C-151.06910928 361.80484419 -158.99122301 362.19187065 -166.91314888 362.58286548 C-173.66746007 362.91618463 -180.42193959 363.24581707 -187.17665076 363.57093341 C-190.61427105 363.73648705 -194.051796 363.90357421 -197.48911667 364.07524562 C-204.63834046 364.43057077 -211.78725105 364.75843903 -218.94042969 365.02352905 C-221.04855329 365.10379551 -223.15637486 365.19248916 -225.26376724 365.29008627 C-228.15125839 365.41842277 -231.0371747 365.50711778 -233.92643929 365.58374858 C-234.75194582 365.62716036 -235.57745234 365.67057214 -236.42797422 365.71529943 C-243.83115236 365.82873888 -247.90957582 362.34521486 -253.14116096 357.46071696 C-253.64083382 356.90923991 -254.14050667 356.35776286 -254.65532112 355.78957438 C-257.96113085 352.27147345 -261.49054008 349.17165368 -265.19438362 346.08254313 C-266.34675577 345.09842187 -267.49780022 344.11274379 -268.64750862 343.12551188 C-271.03192986 341.08528253 -273.41766817 339.04660112 -275.80375862 337.00832438 C-276.41340462 336.48697917 -277.02305061 335.96563396 -277.65117073 335.4284904 C-278.79195911 334.45295714 -279.933333 333.47810786 -281.07548714 332.50417399 C-282.1314762 331.6008967 -283.17908316 330.68770936 -284.21722704 329.76397777 C-286.14371041 328.08734943 -286.14371041 328.08734943 -288.39942211 326.54449534 C-291.92121934 323.87819373 -294.65261849 321.73040009 -295.95917428 317.40845561 C-296.26606223 314.10985897 -296.28880834 310.91625734 -296.21417427 307.60402751 C-296.22186409 306.35170864 -296.22955392 305.09938977 -296.23747677 303.80912185 C-296.25752508 300.34876781 -296.22172007 296.8909387 -296.17647421 293.4309063 C-296.13750255 289.69413763 -296.15076767 285.9575042 -296.15759468 282.2205894 C-296.16230739 275.75153343 -296.13414033 269.28329623 -296.08345413 262.81444621 C-296.01021994 253.46179542 -295.98686211 244.10953936 -295.97556221 234.75663292 C-295.95587852 219.58135398 -295.89602267 204.40651115 -295.8108387 189.23146892 C-295.72819093 174.4928843 -295.66450323 159.75441825 -295.62626839 145.0156486 C-295.62390388 144.10671674 -295.62153936 143.19778488 -295.6191032 142.26130962 C-295.60735762 137.70133371 -295.5959843 133.14135696 -295.58479607 128.58137965 C-295.49153916 90.76895959 -295.3330594 52.95703536 -295.13188362 15.14504313 C-291.76301879 14.40708843 -288.53614637 13.97238019 -285.09311867 13.80335212 C-284.09637957 13.75259353 -283.09964047 13.70183494 -282.07269716 13.64953822 C-280.98488372 13.59797778 -279.89707028 13.54641735 -278.7762928 13.49329448 C-277.61485803 13.43527032 -276.45342326 13.37724616 -275.2567935 13.3174637 C-272.03650813 13.15736307 -268.81607864 13.00064697 -265.59555745 12.84537566 C-262.11995872 12.67699245 -258.64457487 12.50427706 -255.16916084 12.33213115 C-248.35767411 11.99546378 -241.545992 11.66292091 -234.73422861 11.33190315 C-229.18908137 11.06238293 -223.64400293 10.79148773 -218.09897041 10.5196178 C-217.30918237 10.48089823 -216.51939432 10.44217866 -215.70567331 10.40228577 C-214.10094226 10.3236109 -212.49621128 10.24493443 -210.89148039 10.16625638 C-195.83215232 9.42810899 -180.77259155 8.69479915 -165.71295398 7.96299744 C-151.97615304 7.29533488 -138.23964283 6.62189221 -124.5032627 5.94563191 C-110.37464841 5.25011004 -96.24585147 4.55841598 -82.11684847 3.87083417 C-74.19465796 3.48524208 -66.27254423 3.09821562 -58.35061836 2.70722079 C-51.59630718 2.37390164 -44.84182766 2.0442692 -38.08711648 1.71915286 C-34.6494962 1.55359922 -31.21197124 1.38651206 -27.77465057 1.21484065 C-20.62542678 0.8595155 -13.4765162 0.53164724 -6.32333755 0.26655722 C-4.21521395 0.18629076 -2.10739238 0.09759711 0 0 Z " fill="#047EFA" transform="translate(295.1318836212158,-0.14504313468933105)"/>
<path d="M0 0 C7.2392638 -0.49079755 7.2392638 -0.49079755 10.54296875 1.640625 C13.2470034 4.2371861 14.82794963 6.71771622 16.625 10 C18.57733276 13.53363395 20.54755279 16.797229 23 20 C24.01765927 21.99107248 25.01577854 23.99218823 26 26 C26.72248319 27.25387482 27.45173922 28.50386995 28.1875 29.75 C30 33 30 33 30 35 C30.66 35 31.32 35 32 35 C32.60416667 36.20833333 33.20833333 37.41666667 33.8125 38.625 C34.36164063 39.71748047 34.36164063 39.71748047 34.921875 40.83203125 C35.82481514 42.6477261 36.69739467 44.4784767 37.5625 46.3125 C38.80756801 48.95257171 38.80756801 48.95257171 40.5 50.5 C42.66397646 52.66397646 43.63140396 55.26280792 45 58 C45.98824122 59.44560906 46.98927936 60.88251747 48 62.3125 C50.96581841 66.65056275 52.63829755 70.94736722 54 76 C54.66 76 55.32 76 56 76 C56.37125 76.804375 56.7425 77.60875 57.125 78.4375 C58.53110098 81.27648483 60.20445896 83.82905232 62 86.4375 C63.87759296 89.18666697 65.45208135 91.78318506 66.6875 94.875 C67.93042628 97.83434829 68.77704376 98.86966694 71 101 C72.94055798 104.57062668 74.54937629 108.20606106 76 112 C76.66 112 77.32 112 78 112 C78.36351562 112.76183594 78.72703125 113.52367187 79.1015625 114.30859375 C81.94285871 120.14417905 84.93290858 125.59247972 88.6328125 130.921875 C90.32731111 133.49751289 91.61065769 136.18221824 92.93359375 138.9609375 C94.57655517 142.10242417 96.60792572 144.96150521 98.609375 147.8828125 C100.31501806 150.47960614 101.66825348 153.19632312 103 156 C103.33 156.33 103.66 156.66 104 157 C104.5167543 161.17639129 104.79263132 164.79520039 102.4375 168.375 C95.25300907 173.16466062 88.68322396 173.63593946 80.2109375 174.09375 C78.94389984 174.17137573 77.67686218 174.24900146 76.37142944 174.32897949 C60.80064752 175.26605197 45.21069036 175.87398376 29.625 176.5 C23.78366196 176.73504011 17.94246619 176.97313132 12.1015625 177.21875 C11.38650795 177.24880253 10.6714534 177.27885506 9.93473053 177.30981827 C-4.27539243 177.91417368 -18.45678402 178.82068477 -32.64727783 179.77844238 C-39.67837671 180.24307781 -46.71341518 180.63430119 -53.75 181.00537109 C-56.06274399 181.128336 -58.37509459 181.25755823 -60.6875 181.38671875 C-64.41460158 181.59010219 -68.14189283 181.76615478 -71.87158203 181.91467285 C-73.29464473 181.97172268 -74.71751279 182.03384572 -76.14013672 182.10095215 C-78.17672488 182.19125994 -80.21212535 182.25226557 -82.25 182.3046875 C-83.99023438 182.36245361 -83.99023438 182.36245361 -85.765625 182.42138672 C-90.00860034 181.8685957 -92.97307212 180.02692788 -96 177 C-96.07205511 175.31391034 -96.08386068 173.62499341 -96.0625 171.9375 C-96.05347656 171.01839844 -96.04445313 170.09929687 -96.03515625 169.15234375 C-96.02355469 168.44207031 -96.01195313 167.73179687 -96 167 C-95.01 166.67 -94.02 166.34 -93 166 C-92.87625 165.2575 -92.7525 164.515 -92.625 163.75 C-92.04513299 161.19858515 -91.26291261 159.2732427 -90 157 C-89.34 157 -88.68 157 -88 157 C-87.87625 156.2575 -87.7525 155.515 -87.625 154.75 C-87.04513299 152.19858515 -86.26291261 150.2732427 -85 148 C-84.34 148 -83.68 148 -83 148 C-82.87625 147.0925 -82.7525 146.185 -82.625 145.25 C-82.07890323 142.41029677 -81.42736197 140.47409409 -80 138 C-79.34 138 -78.68 138 -78 138 C-77.6596875 136.7934375 -77.6596875 136.7934375 -77.3125 135.5625 C-75.6595579 131.07594286 -73.37841453 127.13519798 -71 123 C-70.05989829 121.31394802 -69.12229303 119.62650104 -68.1875 117.9375 C-67.45833333 116.625 -66.72916667 115.3125 -66 114 C-65.34 114 -64.68 114 -64 114 C-63.87625 113.2575 -63.7525 112.515 -63.625 111.75 C-63.04513299 109.19858515 -62.26291261 107.2732427 -61 105 C-60.34 105 -59.68 105 -59 105 C-58.67 103.02 -58.34 101.04 -58 99 C-57.34 99 -56.68 99 -56 99 C-55.82984375 98.41992188 -55.6596875 97.83984375 -55.484375 97.2421875 C-53.92717951 92.22271695 -52.10161717 88.30224317 -49 84 C-48.30570621 82.6808418 -47.62469505 81.35350594 -47 80 C-46.34 80 -45.68 80 -45 80 C-44.896875 79.29875 -44.79375 78.5975 -44.6875 77.875 C-43.30858613 72.10863289 -39.95251104 67.09053627 -37 62 C-36.34 62 -35.68 62 -35 62 C-34.896875 61.29875 -34.79375 60.5975 -34.6875 59.875 C-33.48568135 54.84921293 -30.88632429 50.26674025 -28 46 C-27.34 46 -26.68 46 -26 46 C-25.01 43.03 -24.02 40.06 -23 37 C-22.34 37 -21.68 37 -21 37 C-20.814375 35.88625 -20.814375 35.88625 -20.625 34.75 C-20.04513299 32.19858515 -19.26291261 30.2732427 -18 28 C-17.34 28 -16.68 28 -16 28 C-15.814375 26.88625 -15.814375 26.88625 -15.625 25.75 C-15.04513299 23.19858515 -14.26291261 21.2732427 -13 19 C-12.34 19 -11.68 19 -11 19 C-10.7834375 17.8553125 -10.7834375 17.8553125 -10.5625 16.6875 C-10 14 -10 14 -9 11 C-8.34 10.67 -7.68 10.34 -7 10 C-6.525625 9.01 -6.05125 8.02 -5.5625 7 C-4 4 -4 4 -1 3 C-0.67 2.01 -0.34 1.02 0 0 Z " fill="#FBCB14" transform="translate(205,99)"/>
<path d="M0 0 C0.47395203 0.40756531 0.94790405 0.81513062 1.43621826 1.23504639 C2.37416229 2.04053925 2.37416229 2.04053925 3.33105469 2.86230469 C3.94938171 3.39362 4.56770874 3.9249353 5.20477295 4.47235107 C7.51891508 6.44157092 9.88158725 8.34655171 12.25 10.25 C17.07665137 14.17989647 21.66752724 18.31349946 26.24609375 22.52734375 C29.82182188 25.73789114 33.54505502 28.74212112 37.28515625 31.7578125 C40.93490735 34.77213931 44.42405401 37.94714062 47.90625 41.15234375 C50.06333263 43.13945339 50.06333263 43.13945339 53 45 C53.37259549 47.20406592 53.37259549 47.20406592 53.36914349 50.00939369 C53.37511663 51.07581144 53.38108978 52.14222919 53.38724393 53.24096262 C53.37413614 55.01233295 53.37413614 55.01233295 53.36076355 56.81948853 C53.36332682 58.06668085 53.3658901 59.31387316 53.36853105 60.59885919 C53.37526437 64.07192408 53.36320464 67.54471336 53.34819686 71.01774311 C53.33528151 74.75871101 53.33962276 78.49966246 53.34190369 82.24064636 C53.34347928 88.72587411 53.33404027 95.21101155 53.31719017 101.69621658 C53.2928434 111.07280221 53.28499934 120.44934401 53.2812262 129.82595782 C53.27465491 145.03764249 53.25467541 160.24927899 53.22631836 175.4609375 C53.19879529 190.24055744 53.17755315 205.02016431 53.16479492 219.79980469 C53.16400675 220.71031289 53.16321858 221.6208211 53.16240653 222.55892046 C53.15849151 227.12652084 53.15470036 231.69412131 53.15097082 236.26172185 C53.11985382 274.17451525 53.06699963 312.08725388 53 350 C51.74003425 349.06402612 50.48133121 348.12635232 49.22314453 347.18798828 C48.17152634 346.40501877 48.17152634 346.40501877 47.09866333 345.60623169 C43.90550008 343.16231421 40.89150603 340.53157039 37.875 337.875 C36.56149945 336.72751933 35.24769025 335.58039188 33.93359375 334.43359375 C32.94915283 333.57290283 32.94915283 333.57290283 31.94482422 332.69482422 C28.95742525 330.0914444 25.94862955 327.51335736 22.9375 324.9375 C22.37305176 324.45410156 21.80860352 323.97070312 21.22705078 323.47265625 C18.18037042 320.86394161 15.1314507 318.25785561 12.08203125 315.65234375 C11.12018921 314.82972046 11.12018921 314.82972046 10.13891602 313.99047852 C8.90695346 312.93685357 7.67439658 311.88392304 6.44116211 310.83178711 C0.04011763 305.3559701 0.04011763 305.3559701 -0.24839699 302.79593408 C-0.24763755 301.87017592 -0.24687811 300.94441775 -0.24609566 299.99060631 C-0.25007775 298.92418856 -0.25405985 297.85777081 -0.25816262 296.75903738 C-0.25233693 295.57812383 -0.24651125 294.39721028 -0.24050903 293.18051147 C-0.24221788 291.93331915 -0.24392673 290.68612684 -0.24568737 289.40114081 C-0.25017618 285.92813346 -0.24213631 282.45524862 -0.23213124 278.98225689 C-0.22352101 275.24128907 -0.22641518 271.50032857 -0.22793579 267.75935364 C-0.22898619 261.27414682 -0.2226935 254.78898014 -0.21146011 248.30378342 C-0.19522894 238.92720069 -0.18999955 229.55063744 -0.18748413 220.17404218 C-0.18310328 204.96237127 -0.16978361 189.75072178 -0.15087891 174.5390625 C-0.13253019 159.7594412 -0.11836876 144.9798257 -0.10986328 130.20019531 C-0.10933783 129.28968711 -0.10881239 128.3791789 -0.10827102 127.44107954 C-0.10566101 122.87347911 -0.10313357 118.30587865 -0.10064721 113.73827815 C-0.07990256 75.82550365 -0.04466643 37.91275349 0 0 Z " fill="#313BCF" transform="translate(0,15)"/>
<path d="M0 0 C2.88759374 -0.1280306 5.77364531 -0.21661577 8.66299701 -0.29333735 C9.48844372 -0.33680894 10.31389044 -0.38028054 11.16435069 -0.42506945 C18.56733238 -0.53931679 22.64532853 2.94437898 27.87672687 7.82870245 C28.37639972 8.3801795 28.87607257 8.93165655 29.39088702 9.49984503 C32.69669675 13.01794596 36.22610598 16.11776574 39.92994952 19.20687628 C41.08232167 20.19099754 42.23336613 21.17667562 43.38307452 22.16390753 C45.76749576 24.20413689 48.15323407 26.24281829 50.53932452 28.28109503 C66.77112965 42.1545436 66.77112965 42.1545436 69.86744952 45.14437628 C69.86744952 45.47437628 69.86744952 45.80437628 69.86744952 46.14437628 C58.85035073 47.02089355 47.86191256 47.44840558 36.81471515 47.74984503 C31.31690265 47.91362167 25.85360521 48.09804548 20.37916827 48.64437628 C12.2635608 49.45316617 4.10949946 49.52984093 -4.03880048 49.74984503 C-9.58919799 49.91342382 -15.10575323 50.09251413 -20.63255048 50.64437628 C-28.7440985 51.45433115 -36.89444387 51.5299474 -45.03880048 51.74984503 C-50.58919799 51.91342382 -56.10575323 52.09251413 -61.63255048 52.64437628 C-69.7440985 53.45433115 -77.89444387 53.5299474 -86.03880048 53.74984503 C-91.58919799 53.91342382 -97.10575323 54.09251413 -102.63255048 54.64437628 C-110.7440985 55.45433115 -118.89444387 55.5299474 -127.03880048 55.74984503 C-132.58919799 55.91342382 -138.10575323 56.09251413 -143.63255048 56.64437628 C-151.7440985 57.45433115 -159.89444387 57.5299474 -168.03880048 57.74984503 C-174.50079615 57.94029002 -180.88962249 58.26711401 -187.32151532 58.90804815 C-194.33470751 59.4976582 -201.38997862 59.57182395 -208.4235661 59.7388587 C-214.48000756 59.89236298 -220.46959596 60.11609016 -226.48801923 60.85140753 C-241.5162417 62.57454212 -241.5162417 62.57454212 -247.90989423 57.52987432 C-250.23244285 55.4091004 -252.3898583 53.17450932 -254.51145673 50.85384893 C-257.17829469 48.0416201 -260.15765664 45.62098773 -263.13255048 43.14437628 C-264.29557139 42.15010742 -265.45703013 41.15400835 -266.61692548 40.15609503 C-268.99946088 38.11363661 -271.38523423 36.07504246 -273.77317548 34.03890753 C-280.65027932 28.16960729 -287.45304375 22.2390414 -294.13255048 16.14437628 C-291.07474798 14.39045277 -288.72508065 13.85024025 -285.21683335 13.67963743 C-283.72471128 13.60051298 -283.72471128 13.60051298 -282.20244533 13.51979005 C-281.11171905 13.47114246 -280.02099277 13.42249487 -278.89721417 13.3723731 C-277.73663383 13.31349452 -276.57605348 13.25461594 -275.38030404 13.19395316 C-272.1579067 13.03231617 -268.93523993 12.87877859 -265.71228993 12.72864318 C-262.23580523 12.56474178 -258.75983852 12.39047054 -255.2837956 12.2174964 C-248.46902492 11.88004402 -241.65382229 11.55224404 -234.8384257 11.22770606 C-226.88727001 10.84874678 -218.93657793 10.46046233 -210.98588931 10.07184745 C-196.77919135 9.37779033 -182.57208258 8.69252767 -168.36472821 8.01205206 C-154.61504309 7.35349172 -140.86569644 6.68836358 -127.11668134 6.01595831 C-109.72940153 5.16563589 -92.34184553 4.32120031 -74.95404615 3.48156985 C-69.42990208 3.21464869 -63.90586022 2.94567408 -58.38185048 2.67598867 C-51.62386137 2.34617791 -44.86569633 2.02026163 -38.10729653 1.69897281 C-34.66766244 1.53538161 -31.22811971 1.370305 -27.78877568 1.20071554 C-20.63545154 0.84974073 -13.4824397 0.52624991 -6.3252511 0.26464367 C-4.21648509 0.18520754 -2.1080239 0.09715682 0 0 Z " fill="#7ABBFE" transform="translate(295.13255047798157,-0.14437627792358398)"/>
<path d="M0 0 C1.24974609 0.00451172 2.49949219 0.00902344 3.78710938 0.01367188 C3.9319376 11.90782382 3.54311117 23.74284716 2.98754883 35.62280273 C2.84965525 38.57518962 2.71735813 41.52778733 2.5859375 44.48046875 C2.11057365 55.0015691 1.5516036 65.50933608 0.78710938 76.01367188 C-3.96546172 77.99652941 -7.08879769 78.26987652 -12.21289062 78.01367188 C-17.19119172 73.03537078 -14.83431785 50.31260232 -15.14282227 43.18310547 C-15.2748461 40.15117679 -15.41266645 37.11954719 -15.55078125 34.08789062 C-16.04017927 23.05363718 -16.34837802 12.05940687 -16.21289062 1.01367188 C-4.86914062 -0.01757812 -4.86914062 -0.01757812 0 0 Z " fill="#151203" transform="translate(215.212890625,137.986328125)"/>
<path d="M0 0 C5.57552338 -0.28838914 9.17362578 -0.178344 14 3 C14.9702889 5.91086669 15.16467847 7.90223685 15.1875 10.9375 C15.20167969 11.79214844 15.21585938 12.64679688 15.23046875 13.52734375 C14.98315152 16.18076421 14.42445381 17.76157259 13 20 C8.9830841 22.3628917 4.54451215 22.8429337 0 22 C-3 20.1875 -3 20.1875 -5 17 C-5.72587815 11.76603646 -5.97815181 7.46722771 -3 3 C-2.34 3 -1.68 3 -1 3 C-0.67 2.01 -0.34 1.02 0 0 Z " fill="#080600" transform="translate(204,232)"/>
<path d="M0 0 C0.6875 1.625 0.6875 1.625 1 4 C-0.4375 7.25 -0.4375 7.25 -2 10 C-2.66 10 -3.32 10 -4 10 C-4.33 11.98 -4.66 13.96 -5 16 C-5.66 16 -6.32 16 -7 16 C-7 16.99 -7 17.98 -7 19 C-7.99 19.66 -8.98 20.32 -10 21 C-11.20450304 23.55183404 -11.20450304 23.55183404 -12 26 C-12.66 25.67 -13.32 25.34 -14 25 C-11.83199193 20.55558346 -9.47944413 16.27490367 -7 12 C-6.34 12 -5.68 12 -5 12 C-4.8453125 10.948125 -4.8453125 10.948125 -4.6875 9.875 C-3.84996394 6.37257648 -2.60307892 2.60307892 0 0 Z " fill="#C4B461" transform="translate(175,149)"/>
<path d="M0 0 C2.64 0 5.28 0 8 0 C8.33 0.66 8.66 1.32 9 2 C8.43152344 2.12375 7.86304688 2.2475 7.27734375 2.375 C0.52753225 4.17795466 -3.07387196 7.26696076 -7 13 C-8.43701723 15.77853916 -8.43701723 15.77853916 -9 18 C-9.66 18 -10.32 18 -11 18 C-10.40138258 15.64828869 -9.73075648 13.3140622 -9 11 C-8.34 10.67 -7.68 10.34 -7 10 C-6.525625 9.01 -6.05125 8.02 -5.5625 7 C-4 4 -4 4 -1 3 C-0.67 2.01 -0.34 1.02 0 0 Z " fill="#DDB442" transform="translate(205,99)"/>
<path d="M0 0 C0.33 0.66 0.66 1.32 1 2 C0.07295911 3.72164737 -0.86432932 5.43935794 -1.875 7.11328125 C-3.3992795 9.66962499 -4.6957647 12.32631764 -6 15 C-6.66 15 -7.32 15 -8 15 C-7.40138258 12.64828869 -6.73075648 10.3140622 -6 8 C-5.34 7.67 -4.68 7.34 -4 7 C-2.96708324 5.01679982 -1.9662501 3.01652194 -1 1 C-0.67 0.67 -0.34 0.34 0 0 Z " fill="#CFB556" transform="translate(202,102)"/>
<path d="M0 0 C1.485 0.99 1.485 0.99 3 2 C3.36328125 4.05859375 3.36328125 4.05859375 3.3125 6.4375 C3.30863281 7.21996094 3.30476563 8.00242187 3.30078125 8.80859375 C3 11 3 11 1 14 C0.34 14 -0.32 14 -1 14 C-0.67 12.35 -0.34 10.7 0 9 C0.66 9 1.32 9 2 9 C1.34 6.03 0.68 3.06 0 0 Z " fill="#C3AE52" transform="translate(306,254)"/>
<path d="M0 0 C3 3.75 3 3.75 3 6 C3.66 6 4.32 6 5 6 C5.66 8.31 6.32 10.62 7 13 C6.34 13 5.68 13 5 13 C4.67 11.35 4.34 9.7 4 8 C3.01 7.67 2.02 7.34 1 7 C0.67 4.69 0.34 2.38 0 0 Z " fill="#DBB949" transform="translate(232,128)"/>
<path d="M0 0 C2.64 0 5.28 0 8 0 C8 0.33 8 0.66 8 1 C5.69 1 3.38 1 1 1 C0.731875 1.639375 0.46375 2.27875 0.1875 2.9375 C-1 5 -1 5 -4 6 C-3.67 5.01 -3.34 4.02 -3 3 C-2.34 3 -1.68 3 -1 3 C-0.67 2.01 -0.34 1.02 0 0 Z " fill="#504200" transform="translate(204,232)"/>
<path d="M0 0 C0.33 1.32 0.66 2.64 1 4 C0.34 4 -0.32 4 -1 4 C-1.103125 4.78375 -1.20625 5.5675 -1.3125 6.375 C-2 9 -2 9 -5 11 C-4.1875 7.5625 -4.1875 7.5625 -3 4 C-2.01 3.67 -1.02 3.34 0 3 C0 2.01 0 1.02 0 0 Z " fill="#CCB452" transform="translate(146,201)"/>
<path d="M0 0 C2.79872437 2.52788007 4.45773019 4.20411134 5 8 C3.68 7.67 2.36 7.34 1 7 C0.67 4.69 0.34 2.38 0 0 Z " fill="#C9B55E" transform="translate(223,113)"/>
<path d="M0 0 C1 2 1 2 0.3125 4.4375 C-1.10829685 7.21143671 -2.39746148 8.35172561 -5 10 C-3.66511872 6.40608886 -2.03977277 3.24509304 0 0 Z " fill="#C2B157" transform="translate(135,221)"/>
<path d="M0 0 C0.33 0 0.66 0 1 0 C1 1.98 1 3.96 1 6 C-0.98 6.99 -0.98 6.99 -3 8 C-1.125 1.125 -1.125 1.125 0 0 Z " fill="#D3B545" transform="translate(139,213)"/>
<path d="M0 0 C2.25245881 2.68841859 3.88213958 4.64641875 5 8 C3.68 7.67 2.36 7.34 1 7 C0.67 4.69 0.34 2.38 0 0 Z " fill="#D4B74F" transform="translate(261,177)"/>
</svg>
