<?xml version="1.0" encoding="UTF-8" standalone="no"?>
<svg
   xmlns:dc="http://purl.org/dc/elements/1.1/"
   xmlns:cc="http://creativecommons.org/ns#"
   xmlns:rdf="http://www.w3.org/1999/02/22-rdf-syntax-ns#"
   xmlns:svg="http://www.w3.org/2000/svg"
   xmlns="http://www.w3.org/2000/svg"
   xmlns:sodipodi="http://sodipodi.sourceforge.net/DTD/sodipodi-0.dtd"
   xmlns:inkscape="http://www.inkscape.org/namespaces/inkscape"
   id="svg"
   version="1.1"
   width="18"
   height="18"
   viewBox="0 0 18 18"
   sodipodi:docname="image2vector.svg"
   inkscape:version="1.0.1 (c497b03c, 2020-09-10)">
  <metadata
     id="metadata21">
    <rdf:RDF>
      <cc:Work
         rdf:about="">
        <dc:format>image/svg+xml</dc:format>
        <dc:type
           rdf:resource="http://purl.org/dc/dcmitype/StillImage" />
        <dc:title></dc:title>
      </cc:Work>
    </rdf:RDF>
  </metadata>
  <defs
     id="defs19" />
  <sodipodi:namedview
     pagecolor="#ffffff"
     bordercolor="#666666"
     borderopacity="1"
     objecttolerance="10"
     gridtolerance="10"
     guidetolerance="10"
     inkscape:pageopacity="0"
     inkscape:pageshadow="2"
     inkscape:window-width="1478"
     inkscape:window-height="790"
     id="namedview17"
     showgrid="false"
     inkscape:zoom="10.076756"
     inkscape:cx="-14.005186"
     inkscape:cy="8.9503874"
     inkscape:window-x="2728"
     inkscape:window-y="105"
     inkscape:window-maximized="0"
     inkscape:current-layer="svg" />
  <g
     id="svgg"
     transform="matrix(0.05616225,0,0,0.05414255,-1.9593822,-2.0021609)">
    <path
       id="path0"
       d="m 319.8,104.83 c -3.08,0.155 -7.13,0.39 -9,0.523 -2.903,0.207 -16.355,0.919 -31,1.643 -2.2,0.108 -7.06,0.377 -10.8,0.598 -15.199,0.894 -19.966,1.161 -27.8,1.553 -4.51,0.226 -9.46,0.52 -11,0.655 -1.54,0.135 -6.76,0.431 -11.6,0.658 -8.554,0.402 -14.146,0.702 -27.8,1.492 -3.63,0.211 -10.29,0.568 -14.8,0.794 -4.51,0.226 -9.46,0.521 -11,0.656 -1.54,0.135 -6.76,0.431 -11.6,0.658 -9.022,0.424 -15.914,0.794 -28.2,1.517 -3.85,0.226 -9.565,0.527 -12.7,0.668 l -5.7,0.256 v 109.517 c 0,60.234 -0.118,109.824 -0.263,110.201 -0.243,0.635 0.188,0.662 6.1,0.369 11.042,-0.546 11.817,-0.58 18.763,-0.812 3.74,-0.125 6.971,-0.395 7.18,-0.601 0.209,-0.206 3.213,-0.375 6.676,-0.375 3.767,0 6.396,-0.161 6.544,-0.4 0.148,-0.239 2.796,-0.4 6.6,-0.4 3.494,0 6.446,-0.151 6.561,-0.337 0.114,-0.185 4.31,-0.467 9.323,-0.627 5.014,-0.16 10.556,-0.368 12.316,-0.462 1.76,-0.094 6.26,-0.275 10,-0.403 3.74,-0.128 6.971,-0.399 7.18,-0.602 0.209,-0.203 3.213,-0.369 6.676,-0.369 3.767,0 6.396,-0.161 6.544,-0.4 0.148,-0.24 2.804,-0.4 6.624,-0.4 3.507,0 6.376,-0.152 6.376,-0.338 0,-0.186 4.815,-0.472 10.7,-0.636 5.885,-0.164 11.51,-0.385 12.5,-0.49 2.819,-0.3 15.142,-0.947 22.3,-1.17 3.713,-0.116 6.5,-0.367 6.5,-0.585 0,-0.226 2.673,-0.381 6.576,-0.381 3.617,0 6.672,-0.154 6.788,-0.342 0.117,-0.189 5.375,-0.474 11.685,-0.635 6.31,-0.161 11.85,-0.381 12.312,-0.49 0.461,-0.108 2.144,-0.296 3.739,-0.418 l 2.9,-0.22 V 214.547 c 0,-60.581 -0.135,-110.114 -0.3,-110.073 -0.165,0.041 -2.82,0.201 -5.9,0.356"
       stroke="none"
       fill="#047cfc"
       fill-rule="evenodd" />
    <path
       id="path1"
       d="m 279.8,71.23 c -1.1,0.172 -4.79,0.424 -8.2,0.559 -3.41,0.136 -9.08,0.423 -12.6,0.638 -3.52,0.216 -9.235,0.487 -12.7,0.602 -3.576,0.119 -6.3,0.374 -6.3,0.59 0,0.226 -2.687,0.381 -6.6,0.381 -4.01,0 -6.6,0.153 -6.6,0.389 0,0.236 -1.221,0.31 -3.1,0.189 -1.705,-0.11 -5.35,-0.017 -8.1,0.207 -2.75,0.224 -7.34,0.513 -10.2,0.641 -5.058,0.228 -11.165,0.571 -24.1,1.356 -3.465,0.21 -9.63,0.552 -13.7,0.759 -4.07,0.207 -10.91,0.567 -15.2,0.799 -4.29,0.232 -9.825,0.476 -12.299,0.541 -2.475,0.066 -4.5,0.254 -4.5,0.419 -0.001,0.165 -2.78,0.3 -6.177,0.3 -3.687,0 -6.276,0.161 -6.424,0.4 -0.149,0.241 -2.93,0.4 -7,0.4 -4.07,0 -6.851,0.159 -7,0.4 -0.147,0.239 -2.73,0.4 -6.4,0.4 -3.384,0 -6.249,0.156 -6.367,0.346 -0.117,0.19 -5.483,0.489 -11.923,0.664 -6.441,0.174 -12.186,0.333 -12.767,0.352 -1.291,0.043 -0.716,1.067 1.915,3.412 3.168,2.824 8.749,7.833 8.942,8.026 0.11,0.11 1.1,0.994 2.2,1.965 1.1,0.97 2.903,2.59 4.006,3.6 1.103,1.009 3.713,3.365 5.8,5.235 2.087,1.869 3.99,3.579 4.229,3.8 3.053,2.812 7.247,6.519 7.873,6.958 0.628,0.442 1.764,0.501 5.443,0.281 9.749,-0.582 24.998,-1.426 40.049,-2.217 4.29,-0.225 10.995,-0.592 14.9,-0.816 3.905,-0.223 10.385,-0.59 14.4,-0.816 4.015,-0.225 10.27,-0.585 13.9,-0.799 9.344,-0.551 20.099,-1.144 29.4,-1.621 4.4,-0.225 11.06,-0.584 14.8,-0.796 15.864,-0.901 30.385,-1.705 46.4,-2.571 6.38,-0.344 14.75,-0.809 18.6,-1.031 3.85,-0.223 9.97,-0.556 13.6,-0.74 8.244,-0.419 9.225,-0.74 6.9,-2.258 -0.605,-0.395 -1.837,-1.451 -2.737,-2.346 -0.9,-0.895 -2.695,-2.528 -3.989,-3.628 -2.029,-1.726 -4.388,-3.905 -7.588,-7.01 -0.448,-0.435 -1.043,-0.79 -1.324,-0.79 -0.28,0 -0.398,-0.18 -0.262,-0.4 0.136,-0.22 0.083,-0.4 -0.117,-0.4 -0.201,0 -1.641,-1.215 -3.2,-2.7 -1.56,-1.485 -3.473,-3.15 -4.251,-3.7 -0.778,-0.55 -1.521,-1.315 -1.651,-1.7 -0.129,-0.385 -0.396,-0.7 -0.593,-0.7 -0.196,0 -1.191,-0.81 -2.209,-1.8 -1.019,-0.99 -2.016,-1.8 -2.216,-1.8 -0.2,0 -0.363,-0.168 -0.363,-0.373 0,-0.205 -0.315,-0.474 -0.7,-0.598 -0.385,-0.123 -1.06,-0.763 -1.5,-1.422 -1.192,-1.785 -6.647,-2.479 -12.4,-1.577"
       stroke="none"
       fill="#7bbbfb"
       fill-rule="evenodd" />
    <path
       id="path2"
       d="m 155.3,78.276 c 0.385,0.1 1.015,0.1 1.4,0 0.385,-0.101 0.07,-0.183 -0.7,-0.183 -0.77,0 -1.085,0.082 -0.7,0.183 m -85.4,4.753 c -0.165,0.167 -0.3,49.948 -0.3,110.624 v 110.32 l 1.484,1.613 c 0.815,0.888 1.681,1.614 1.924,1.614 0.242,0 1.184,0.765 2.092,1.7 3.191,3.284 5.146,4.997 6.019,5.274 0.485,0.154 0.881,0.442 0.881,0.64 0,0.393 1.689,2.099 4.542,4.586 1.009,0.88 3.235,2.905 4.946,4.5 1.711,1.595 3.225,2.9 3.364,2.9 0.138,0 1.735,1.44 3.548,3.2 1.813,1.76 3.505,3.2 3.76,3.2 0.255,0 0.728,0.384 1.052,0.853 0.713,1.035 2.482,2.747 2.837,2.747 0.681,0 0.74,-8.884 0.746,-111.029 l 0.005,-109.229 -3.288,-2.971 c -1.809,-1.634 -4.104,-3.691 -5.1,-4.571 -0.997,-0.88 -2.082,-1.871 -2.412,-2.203 -0.33,-0.332 -3.03,-2.762 -6,-5.4 C 87.03,98.76 84.51,96.511 84.4,96.401 84.29,96.29 83.206,95.3 81.99,94.2 80.775,93.1 78.102,90.67 76.05,88.8 73.999,86.93 71.896,85.138 71.377,84.818 70.858,84.497 70.381,83.895 70.317,83.48 70.253,83.064 70.065,82.861 69.9,83.029"
       stroke="none"
       fill="#343ccc"
       fill-rule="evenodd" />
    <path
       id="path3"
       d="m 70.4,83.679 c 0,0.294 0.432,0.802 0.96,1.128 0.528,0.326 2.639,2.123 4.69,3.993 2.052,1.87 4.725,4.3 5.94,5.4 1.216,1.1 2.3,2.09 2.41,2.201 0.11,0.11 2.63,2.359 5.6,4.996 2.97,2.638 5.67,5.069 6,5.402 0.33,0.332 2.13,1.953 4,3.601 1.87,1.648 3.674,3.267 4.009,3.598 0.334,0.331 1.144,1.041 1.8,1.578 2.002,1.641 -3.371,-3.563 -7.409,-7.175 -4.234,-3.787 -5.108,-4.572 -11.4,-10.236 -2.42,-2.179 -5.12,-4.608 -6,-5.397 -0.88,-0.79 -3.625,-3.279 -6.1,-5.531 -2.475,-2.252 -4.5,-3.853 -4.5,-3.558"
       stroke="none"
       fill="#457ae8"
       fill-rule="evenodd" />
    <path
       id="path4"
       d="m 285.7,71.076 c 0.385,0.1 1.015,0.1 1.4,0 0.385,-0.101 0.07,-0.183 -0.7,-0.183 -0.77,0 -1.085,0.082 -0.7,0.183 m -61.795,3.607 c 0.497,0.096 1.217,0.092 1.6,-0.008 0.382,-0.1 -0.025,-0.179 -0.905,-0.174 -0.88,0.004 -1.193,0.086 -0.695,0.182 m 101.167,29.178 c -0.144,0.144 -3.369,0.414 -7.167,0.6 -3.798,0.187 -9.785,0.506 -13.305,0.709 -3.52,0.204 -11.08,0.609 -16.8,0.9 -6.698,0.341 -9.261,0.576 -7.2,0.659 2.696,0.109 17.577,-0.559 29.6,-1.329 1.76,-0.112 5.63,-0.301 8.6,-0.419 5.963,-0.236 7.2,-0.406 7.2,-0.989 0,-0.446 -0.537,-0.522 -0.928,-0.131 m -58.472,3.372 c -3.08,0.165 -9.11,0.503 -13.4,0.752 -14.486,0.841 -20.169,1.151 -29.2,1.595 -11.216,0.551 -12.442,0.676 -7.4,0.755 2.2,0.034 6.88,-0.125 10.4,-0.354 3.52,-0.229 10,-0.604 14.4,-0.833 4.4,-0.229 10.7,-0.572 14,-0.762 3.3,-0.189 9.37,-0.499 13.489,-0.687 4.119,-0.189 7.614,-0.468 7.766,-0.621 0.314,-0.314 -1.948,-0.279 -10.055,0.155 m -65.2,3.596 c -3.08,0.162 -9.02,0.502 -13.2,0.754 -9.867,0.596 -18.274,1.053 -29.4,1.598 -11.213,0.549 -12.445,0.675 -7.4,0.754 2.2,0.034 6.88,-0.125 10.4,-0.354 3.52,-0.229 10,-0.605 14.4,-0.834 4.4,-0.23 10.79,-0.575 14.2,-0.768 3.41,-0.193 9.478,-0.5 13.485,-0.683 4.007,-0.183 7.412,-0.459 7.567,-0.614 0.316,-0.316 -1.882,-0.284 -10.052,0.147 m -65.2,3.607 c -5.019,0.276 -9.428,0.531 -24.488,1.418 -3.546,0.209 -4.637,0.147 -5.2,-0.295 -0.659,-0.517 -0.668,-0.503 -0.12,0.192 0.64,0.814 1.952,0.802 18.808,-0.166 3.41,-0.196 9.478,-0.506 13.485,-0.689 4.007,-0.183 7.412,-0.459 7.567,-0.614 0.321,-0.322 -2.071,-0.285 -10.052,0.154"
       stroke="none"
       fill="#248cfc"
       fill-rule="evenodd" />
  </g>
</svg>
