<?xml version="1.0" encoding="UTF-8" standalone="no"?><!DOCTYPE svg PUBLIC "-//W3C//DTD SVG 1.1//EN" "http://www.w3.org/Graphics/SVG/1.1/DTD/svg11.dtd"><svg width="100%" height="100%" viewBox="0 0 159 131" version="1.1" xmlns="http://www.w3.org/2000/svg" xmlns:xlink="http://www.w3.org/1999/xlink" xml:space="preserve" xmlns:serif="http://www.serif.com/" style="fill-rule:evenodd;clip-rule:evenodd;stroke-linecap:round;stroke-linejoin:round;stroke-miterlimit:1.5;"><g><g><g><path d="M127.736,19.586l-105.795,5.808l0,105.509l105.795,-5.809l0,-105.508Z" style="fill:#2464eb;"/><path d="M105.795,0l-105.795,5.809l21.941,19.585l105.795,-5.808l-21.941,-19.586Z" style="fill:#7abbff;"/><path d="M21.941,25.394l-21.941,-19.585l0,105.508l21.941,19.586l0,-105.509Z" style="fill:#1c4ed8;"/></g></g><g><path d="M147.007,32.741c-0,-11.063 -8.981,-20.044 -20.044,-20.044l-64.862,0c-11.062,0 -20.044,8.981 -20.044,20.044c0,11.062 8.982,20.043 20.044,20.043l64.862,0c11.063,0 20.044,-8.981 20.044,-20.043Z" style="fill:#fbe655;stroke:#fff;stroke-opacity:0;stroke-width:22.53px;"/><g><path d="M53.412,42.25l5.216,-19.018l5.678,-0l5.217,19.018l-3.369,0l-1.141,-4.347l-7.091,-0l-1.142,4.347l-3.368,0Zm5.27,-7.336l5.57,0l-2.554,-9.645l-0.462,0l-2.554,9.645Z" style="fill:#202937;fill-rule:nonzero;"/><path d="M71.941,42.25l-0,-19.018l3.287,-0l0,16.057l8.912,-0l-0,2.961l-12.199,0Z" style="fill:#202937;fill-rule:nonzero;"/><path d="M86.694,42.25l-0,-19.018l7.689,-0c1.195,-0 2.246,0.235 3.151,0.706c0.906,0.471 1.621,1.137 2.147,1.997c0.525,0.86 0.788,1.879 0.788,3.056l-0,0.381c-0,1.159 -0.268,2.173 -0.802,3.043c-0.534,0.869 -1.259,1.539 -2.173,2.01c-0.915,0.471 -1.952,0.707 -3.111,0.707l-4.402,-0l0,7.118l-3.287,0Zm3.287,-10.08l4.076,0c0.942,0 1.698,-0.253 2.268,-0.76c0.571,-0.508 0.856,-1.205 0.856,-2.093l0,-0.271c0,-0.888 -0.281,-1.585 -0.842,-2.092c-0.562,-0.507 -1.322,-0.761 -2.282,-0.761l-4.076,0l0,5.977Z" style="fill:#202937;fill-rule:nonzero;"/><path d="M103.077,42.25l-0,-19.018l3.287,-0l0,7.987l7.499,0l0,-7.987l3.288,-0l-0,19.018l-3.288,0l0,-8.042l-7.499,-0l0,8.042l-3.287,0Z" style="fill:#202937;fill-rule:nonzero;"/><path d="M119.569,42.25l5.216,-19.018l5.679,-0l5.216,19.018l-3.369,0l-1.141,-4.347l-7.091,-0l-1.141,4.347l-3.369,0Zm5.27,-7.336l5.57,0l-2.554,-9.645l-0.462,0l-2.554,9.645Z" style="fill:#202937;fill-rule:nonzero;"/></g></g></g></svg>