<?xml version="1.0" encoding="UTF-8" standalone="no"?><!DOCTYPE svg PUBLIC "-//W3C//DTD SVG 1.1//EN" "http://www.w3.org/Graphics/SVG/1.1/DTD/svg11.dtd"><svg width="100%" height="100%" viewBox="0 0 150 150" version="1.1" xmlns="http://www.w3.org/2000/svg" xmlns:xlink="http://www.w3.org/1999/xlink" xml:space="preserve" xmlns:serif="http://www.serif.com/" style="fill-rule:evenodd;clip-rule:evenodd;stroke-linecap:round;stroke-linejoin:round;stroke-miterlimit:1.5;"><rect id="Artboard1" x="0" y="0" width="150" height="150" style="fill:none;"/><clipPath id="_clip1"><rect x="0" y="0" width="150" height="150"/></clipPath><g clip-path="url(#_clip1)"><g><g><path d="M129.233,29.134l-105.795,5.809l-0,105.508l105.795,-5.808l-0,-105.509Z" style="fill:#2464eb;"/><path d="M107.291,9.549l-105.794,5.808l21.941,19.586l105.795,-5.809l-21.942,-19.585Z" style="fill:#7abbff;"/><path d="M23.438,34.943l-21.941,-19.586l-0,105.509l21.941,19.585l-0,-105.508Z" style="fill:#1c4ed8;"/></g></g><g><path d="M148.503,42.289c0,-11.062 -8.981,-20.043 -20.043,-20.043l-64.862,-0c-11.063,-0 -20.044,8.981 -20.044,20.043c0,11.063 8.981,20.044 20.044,20.044l64.862,0c11.062,0 20.043,-8.981 20.043,-20.044Z" style="fill:#fbe655;stroke:#fff;stroke-opacity:0;stroke-width:22.53px;"/><text x="54.365px" y="51.799px" style="font-family:'SpaceGrotesk-SemiBold', 'Space Grotesk';font-weight:600;font-size:27.169px;fill:#202937;">ALPHA</text></g></g></svg>